<svg id="Layer_1" data-name="Layer 1" xmlns="http://www.w3.org/2000/svg" viewBox="0 0 411.88 161.99"><defs><style>.cls-1{fill:#144e64;}.cls-2{fill:#a9acac;}</style></defs><title>my time study-01</title><path class="cls-1" d="M115,70.19a.76.76,0,0,1,.23-.49.7.7,0,0,1,.51-.19h3.86a.7.7,0,0,1,.71.59l5.45,15.2q1.37-3.83,2.76-7.6t2.74-7.6a.75.75,0,0,1,.71-.59h3.88a.67.67,0,0,1,.5.2.73.73,0,0,1,.21.48q.57,5.42,1.16,10.8t1.17,10.78v0q0,.63-.68.63h-3a.64.64,0,0,1-.73-.68l-1.58-14.61L127.8,91.37a1.18,1.18,0,0,1-.25.4.49.49,0,0,1-.35.19h-2.78a.51.51,0,0,1-.37-.18,1.07,1.07,0,0,1-.25-.41q-1.27-3.57-2.55-7.09l-2.58-7.11-1.58,14.6q0,.68-.71.68h-3a.6.6,0,0,1-.68-.68Z"/><path class="cls-1" d="M152.19,98.12a1.16,1.16,0,0,1-.35.5.93.93,0,0,1-.57.16h-2.9a.9.9,0,0,1-.59-.15.47.47,0,0,1-.16-.36,1.75,1.75,0,0,1,0-.31.62.62,0,0,1,.07-.23l2.72-6.94L143.54,74a.06.06,0,0,0,0,0v-.14a.93.93,0,0,1-.08-.39.52.52,0,0,1,.19-.42.88.88,0,0,1,.57-.15H147a.91.91,0,0,1,.91.65l.28.73.7,1.94.8,2.22.84,2.29.8,2.16.69,1.82q.31.81.49,1.27l4.57-12.44a1.16,1.16,0,0,1,.35-.5.93.93,0,0,1,.57-.16h2.9a.9.9,0,0,1,.59.15.47.47,0,0,1,.16.36,1.79,1.79,0,0,1,0,.31.65.65,0,0,1-.07.23Z"/><path class="cls-1" d="M166.86,70.19a.64.64,0,0,1,.2-.49.72.72,0,0,1,.51-.19h16.25a.81.81,0,0,1,.5.17.68.68,0,0,1,.25.51v2.7a.82.82,0,0,1-.19.54.69.69,0,0,1-.56.23H178V91.74a.72.72,0,0,1-.19.49.68.68,0,0,1-.53.22h-3a.74.74,0,0,1-.5-.2.65.65,0,0,1-.22-.51V73.66h-5.89a.7.7,0,0,1-.51-.19.77.77,0,0,1-.2-.58Z"/><path class="cls-1" d="M190.51,66.93a.81.81,0,0,1,.91-.93H194a1,1,0,0,1,.7.23.88.88,0,0,1,.26.7v2.31a1.08,1.08,0,0,1-.25.67.83.83,0,0,1-.7.32h-2.59q-.93,0-.93-1Zm0,6.84a1,1,0,0,1,.23-.67.85.85,0,0,1,.68-.27H194a1,1,0,0,1,.35.07,1,1,0,0,1,.32.2,1.19,1.19,0,0,1,.23.3.76.76,0,0,1,.09.37V91.52q0,.93-1,.93h-2.56a.82.82,0,0,1-.93-.93Z"/><path class="cls-1" d="M203.08,73a2.21,2.21,0,0,1,1-.19h1.56a.77.77,0,0,1,.66.29,1.69,1.69,0,0,1,.29.65l.17,1.49a7.87,7.87,0,0,1,.82-1,4.88,4.88,0,0,1,1.1-.86,6,6,0,0,1,1.5-.6,7.93,7.93,0,0,1,2-.23,8.5,8.5,0,0,1,2,.21,5.87,5.87,0,0,1,1.59.62,5.78,5.78,0,0,1,1.28,1,7.64,7.64,0,0,1,1,1.37,4.94,4.94,0,0,1,1-1.33,6.24,6.24,0,0,1,1.46-1,7.86,7.86,0,0,1,1.82-.66,9,9,0,0,1,2.05-.23,7.32,7.32,0,0,1,3.21.66A6.54,6.54,0,0,1,229.89,75a8,8,0,0,1,1.4,2.7,11.26,11.26,0,0,1,.47,3.31v10.3a1.21,1.21,0,0,1-.26.84,1,1,0,0,1-.76.29h-2.35a1.11,1.11,0,0,1-.83-.23,1.23,1.23,0,0,1-.21-.82V81a5.47,5.47,0,0,0-.23-1.59,3.9,3.9,0,0,0-.72-1.37,3.63,3.63,0,0,0-1.22-1,3.91,3.91,0,0,0-1.75-.36,4.07,4.07,0,0,0-1.58.3,3.55,3.55,0,0,0-1.25.86,4.1,4.1,0,0,0-.83,1.36,4.94,4.94,0,0,0-.3,1.77V91.34q0,1.11-1,1.11h-2.36a1.08,1.08,0,0,1-.82-.23,1.27,1.27,0,0,1-.2-.82V81a5.54,5.54,0,0,0-.22-1.57,4,4,0,0,0-.7-1.37,3.5,3.5,0,0,0-1.21-1,3.9,3.9,0,0,0-1.76-.37,4,4,0,0,0-1.42.27,4.19,4.19,0,0,0-1.29.78,4.06,4.06,0,0,0-1,1.25,3.84,3.84,0,0,0-.39,1.68V91.54a.87.87,0,0,1-.26.66.92.92,0,0,1-.66.25h-2.55a1,1,0,0,1-.75-.24.93.93,0,0,1-.24-.69V73.74A.73.73,0,0,1,203.08,73Z"/><path class="cls-1" d="M254.48,90.28a11,11,0,0,1-3,1.82,9.23,9.23,0,0,1-3.55.66,10.07,10.07,0,0,1-4-.79,10.36,10.36,0,0,1-5.51-5.38,9.62,9.62,0,0,1-.83-4,10.37,10.37,0,0,1,1.3-5.06,10,10,0,0,1,1.52-2.05,9.64,9.64,0,0,1,4.4-2.63,10,10,0,0,1,2.73-.36,9.52,9.52,0,0,1,2.32.29,10.19,10.19,0,0,1,2.17.81A10.31,10.31,0,0,1,254,74.89a9.28,9.28,0,0,1,1.58,1.69,9.13,9.13,0,0,1,1.36,2.8,12,12,0,0,1,.43,3.32,6.13,6.13,0,0,1,0,.75.94.94,0,0,1-.19.49.89.89,0,0,1-.46.27,3.42,3.42,0,0,1-.86.08h-13.7a5.23,5.23,0,0,0,.76,2,5.93,5.93,0,0,0,1.34,1.45,5.64,5.64,0,0,0,1.68.9,5.78,5.78,0,0,0,1.82.3,6.3,6.3,0,0,0,1.34-.14,6.88,6.88,0,0,0,1.2-.37,6.65,6.65,0,0,0,1-.53,6,6,0,0,0,.83-.63,0,0,0,0,1,0,0,2.21,2.21,0,0,1,.36-.27.69.69,0,0,1,.36-.1.7.7,0,0,1,.32.09,1.11,1.11,0,0,1,.35.31l.71.85.48.57a2.43,2.43,0,0,1,.27.4.76.76,0,0,1,.08.34A1.16,1.16,0,0,1,254.48,90.28Zm-6.86-13.93a4.92,4.92,0,0,0-1.78.33,6,6,0,0,0-1.58.9A6.24,6.24,0,0,0,243,78.93a5.5,5.5,0,0,0-.78,1.67h10.94a6,6,0,0,0-.75-1.72,5.52,5.52,0,0,0-1.21-1.34,5.36,5.36,0,0,0-1.62-.87A6.07,6.07,0,0,0,247.62,76.35Z"/><path class="cls-2" d="M277.12,75.62a.72.72,0,0,1-.37-.1,3.57,3.57,0,0,1-.39-.27l0,0a8.09,8.09,0,0,0-1.79-1.31,7.55,7.55,0,0,0-1.23-.52,4.26,4.26,0,0,0-1.34-.22,5.51,5.51,0,0,0-1.53.19,3.5,3.5,0,0,0-1.11.53,2.27,2.27,0,0,0-.68.78,2.06,2.06,0,0,0-.23,1,1.48,1.48,0,0,0,.35,1,3.21,3.21,0,0,0,.94.74,9.23,9.23,0,0,0,1.37.59q.77.27,1.62.53t1.93.63a17.62,17.62,0,0,1,1.83.76,12.82,12.82,0,0,1,1.63.94A6.16,6.16,0,0,1,279.4,82a5.45,5.45,0,0,1,.87,1.5,5.17,5.17,0,0,1,.32,1.86,6.71,6.71,0,0,1-.68,3A7,7,0,0,1,278,90.74a8.6,8.6,0,0,1-2.81,1.48,11.29,11.29,0,0,1-3.47.52,10.23,10.23,0,0,1-2.36-.28,11.5,11.5,0,0,1-2.26-.79,12,12,0,0,1-2-1.23,10.2,10.2,0,0,1-1.72-1.61v0l0-.06a1.13,1.13,0,0,1-.34-.71.62.62,0,0,1,.09-.32,1.81,1.81,0,0,1,.28-.34l.51-.51.49-.45a6.61,6.61,0,0,1,.53-.45q.26-.2.49-.34a.75.75,0,0,1,.36-.14.65.65,0,0,1,.4.14,2.81,2.81,0,0,1,.31.26l.06.06h0a10.21,10.21,0,0,0,1.21,1,12.2,12.2,0,0,0,1.38.83,8.25,8.25,0,0,0,1.41.57,4.64,4.64,0,0,0,1.32.21,5.64,5.64,0,0,0,1.59-.22,4.1,4.1,0,0,0,1.28-.61,2.93,2.93,0,0,0,.85-1,2.5,2.5,0,0,0,.31-1.24,1.77,1.77,0,0,0-.4-1.17,3.64,3.64,0,0,0-1-.85,8.08,8.08,0,0,0-1.46-.63q-.81-.26-1.63-.49a24.5,24.5,0,0,1-3.3-1.24,10,10,0,0,1-2.36-1.49,5.25,5.25,0,0,1-1.88-4.16A5.74,5.74,0,0,1,266,70.89a7.92,7.92,0,0,1,2.56-1.31,11.15,11.15,0,0,1,3.35-.47,9.8,9.8,0,0,1,2.86.44,11.15,11.15,0,0,1,2.69,1.21q.37.23.76.53t.71.59a4.11,4.11,0,0,1,.53.59.72.72,0,0,1,.12.86,1.47,1.47,0,0,1-.23.35l-.46.49v0l-.48.51a6,6,0,0,1-.5.47q-.25.21-.45.35A.64.64,0,0,1,277.12,75.62Z"/><path class="cls-2" d="M293.84,92.45a7.54,7.54,0,0,1-2.29-.37,5.56,5.56,0,0,1-1.87-1,4.84,4.84,0,0,1-1.26-1.65,5.18,5.18,0,0,1-.46-2.23V76.72h-1.78a1,1,0,0,1-.67-.2.85.85,0,0,1-.22-.66V73.64a.78.78,0,0,1,.22-.63,1,1,0,0,1,.67-.18H288q0-.82,0-1.63t0-1.63a.63.63,0,0,1,.19-.49,1.72,1.72,0,0,1,.59-.32l.63-.22.76-.25q.39-.12.76-.21a2.86,2.86,0,0,1,.62-.08.66.66,0,0,1,.63.26,1.42,1.42,0,0,1,.15.7q0,1,0,1.94t0,1.94h2.22a.85.85,0,0,1,.62.21.87.87,0,0,1,.22.65V75.8a1,1,0,0,1-.22.71.84.84,0,0,1-.62.21h-2.22v2.93c0,.36,0,.69,0,1s0,.64,0,1v2.94a.27.27,0,0,1,0,.06.23.23,0,0,0,0,.06v2a2.18,2.18,0,0,0,.4,1.47,1.66,1.66,0,0,0,1.3.45.62.62,0,0,1,.51.23.87.87,0,0,1,.19.56V91.6a.78.78,0,0,1-.85.85Z"/><path class="cls-2" d="M318.15,91.84a.32.32,0,0,1-.12.26.69.69,0,0,1-.29.13,2,2,0,0,1-.37,0h-1.92a.78.78,0,0,1-.66-.29,1.6,1.6,0,0,1-.29-.66l-.17-1.41a5.49,5.49,0,0,1-.85,1,5.55,5.55,0,0,1-1.21.83,6.94,6.94,0,0,1-1.6.58,8.83,8.83,0,0,1-2,.22,7.58,7.58,0,0,1-3.24-.66A6.74,6.74,0,0,1,303,90.11a7.83,7.83,0,0,1-1.44-2.68,10.82,10.82,0,0,1-.49-3.32V73.8a1.21,1.21,0,0,1,.26-.84,1,1,0,0,1,.76-.29h2.35a1.11,1.11,0,0,1,.83.23,1.24,1.24,0,0,1,.21.82V84a5.12,5.12,0,0,0,.25,1.6,4.25,4.25,0,0,0,.76,1.4,3.74,3.74,0,0,0,1.27,1,4,4,0,0,0,1.78.37,4.86,4.86,0,0,0,1.48-.25,4.34,4.34,0,0,0,1.41-.76,4.18,4.18,0,0,0,1-1.27,3.67,3.67,0,0,0,.42-1.78v-10a5.27,5.27,0,0,1,0-.56,1.89,1.89,0,0,1,.13-.53,1,1,0,0,1,.28-.39.74.74,0,0,1,.49-.15h2.55a1,1,0,0,1,.75.25,1,1,0,0,1,.24.7V91.38A.51.51,0,0,1,318.15,91.84Z"/><path class="cls-2" d="M340.55,90.21a10.16,10.16,0,0,1-1.2,1,8.3,8.3,0,0,1-1.41.83,8.39,8.39,0,0,1-1.59.55,7.53,7.53,0,0,1-1.75.2,9.5,9.5,0,0,1-3.88-.8,9.91,9.91,0,0,1-3.14-2.17,10,10,0,0,1-2.09-3.22,10.71,10.71,0,0,1,0-7.91,10,10,0,0,1,2.09-3.22,9.91,9.91,0,0,1,3.14-2.17,9.5,9.5,0,0,1,3.88-.8,7.75,7.75,0,0,1,3.32.67A8.49,8.49,0,0,1,340.47,75V67.93a.88.88,0,0,1,1-.93H344a1,1,0,0,1,.66.25.83.83,0,0,1,.31.67V91.52q0,.93-1,.93h-2.32a.74.74,0,0,1-.63-.23,2.34,2.34,0,0,1-.31-.69Zm-11.48-7.54a6.36,6.36,0,0,0,.43,2.34,5.9,5.9,0,0,0,1.21,1.92,5.78,5.78,0,0,0,1.82,1.3,5.39,5.39,0,0,0,2.28.48,5.7,5.7,0,0,0,2.3-.47A6,6,0,0,0,339,87a6.16,6.16,0,0,0,1.27-1.88,6,6,0,0,0,.5-2.29v-.11a6,6,0,0,0-.46-2.33,6.33,6.33,0,0,0-1.27-2A6.15,6.15,0,0,0,337.14,77a5.52,5.52,0,0,0-2.34-.5,5.18,5.18,0,0,0-2.28.5,5.93,5.93,0,0,0-1.82,1.34,6.15,6.15,0,0,0-1.21,2A6.39,6.39,0,0,0,329.07,82.67Z"/><path class="cls-2" d="M358.76,98.12a1.16,1.16,0,0,1-.36.5.93.93,0,0,1-.57.16h-2.9a.9.9,0,0,1-.59-.15.47.47,0,0,1-.16-.36,1.72,1.72,0,0,1,0-.31.62.62,0,0,1,.07-.23L357,90.79,350.11,74a.06.06,0,0,0,0,0v-.14a.92.92,0,0,1-.08-.39.51.51,0,0,1,.19-.42.88.88,0,0,1,.57-.15h2.8a.91.91,0,0,1,.91.65l.28.73.7,1.94.8,2.22.84,2.29.8,2.16.69,1.82.49,1.27,4.57-12.44A1.15,1.15,0,0,1,364,73a.93.93,0,0,1,.57-.16h2.9a.9.9,0,0,1,.59.15.47.47,0,0,1,.16.36,1.79,1.79,0,0,1,0,.31.65.65,0,0,1-.07.23Z"/><path class="cls-1" d="M128.88,103.88c-16.35,21.81-50.13,20.43-64.15-3.11-12.83-21.54-1-50.19,23.13-56.72,15.34-4.15,31.56,1.91,41,14.51,2.29,3.05,7.5.06,5.18-3-9.47-12.62-24.42-20.18-40.37-18.61A45.16,45.16,0,0,0,59.88,58.09C44.16,83.58,59,118.24,88.22,124.66c17.65,3.88,35.15-3.49,45.85-17.75,2.32-3.09-2.89-6.08-5.18-3Z"/><rect class="cls-1" x="94.99" y="53.89" width="5.67" height="30.17" rx="2.83" ry="2.83"/><rect class="cls-1" x="86.37" y="69.77" width="5.67" height="22.92" rx="2.83" ry="2.83" transform="translate(7.97 170.42) rotate(-90)"/><rect class="cls-1" x="97.05" y="45.24" width="1.54" height="3.85" transform="translate(195.65 94.33) rotate(-180)"/><rect class="cls-1" x="97.05" y="113.15" width="1.54" height="3.85" transform="translate(195.65 230.16) rotate(-180)"/><rect class="cls-1" x="63.01" y="79.3" width="1.54" height="3.85" transform="translate(-17.44 145.01) rotate(-90)"/></svg>