<svg id="Layer_1" data-name="Layer 1" xmlns="http://www.w3.org/2000/svg" viewBox="0 0 1429.42 404.01"><defs><style>.cls-1{fill:#144e64;}.cls-2{fill:#a9acac;}</style></defs><title>My time study Logo</title><path class="cls-1" d="M412.23,295.75a3.47,3.47,0,0,1,1.05-2.21,3.2,3.2,0,0,1,2.32-.88h17.54a3.19,3.19,0,0,1,3.23,2.67l24.77,69q6.24-17.4,12.52-34.51t12.45-34.52q1-2.67,3.23-2.67h17.61a3,3,0,0,1,2.28.91,3.3,3.3,0,0,1,.95,2.17q2.59,24.63,5.26,49t5.33,49V394q0,2.88-3.09,2.88H504.06q-3.16,0-3.3-3.09l-7.16-66.37-23.36,64.54a5.37,5.37,0,0,1-1.12,1.83,2.21,2.21,0,0,1-1.61.84H454.88a2.3,2.3,0,0,1-1.68-.81,4.87,4.87,0,0,1-1.12-1.86q-5.75-16.2-11.58-32.2t-11.72-32.27l-7.16,66.3q0,3.09-3.23,3.09H404.79q-3.09,0-3.09-3.09Z" transform="translate(-132.86 -143.8)"/><path class="cls-1" d="M581,422.6a5.27,5.27,0,0,1-1.61,2.28,4.23,4.23,0,0,1-2.6.74H563.62a4.1,4.1,0,0,1-2.7-.67,2.14,2.14,0,0,1-.74-1.65,8,8,0,0,1,.18-1.4,2.82,2.82,0,0,1,.32-1.05L573,389.34l-31.29-76.26a.29.29,0,0,0-.07-.21v-.63a4.21,4.21,0,0,1-.35-1.75,2.34,2.34,0,0,1,.84-1.89,4,4,0,0,1,2.59-.7h12.7a4.13,4.13,0,0,1,4.14,2.95l1.26,3.3,3.16,8.8q1.75,4.88,3.65,10.07t3.82,10.42q1.93,5.23,3.65,9.82t3.12,8.28q1.4,3.69,2.25,5.79l20.77-56.48a5.26,5.26,0,0,1,1.61-2.28,4.23,4.23,0,0,1,2.6-.74h13.19a4.1,4.1,0,0,1,2.7.67,2.14,2.14,0,0,1,.74,1.65,8.12,8.12,0,0,1-.17,1.4,2.93,2.93,0,0,1-.31,1.05Z" transform="translate(-132.86 -143.8)"/><path class="cls-1" d="M647.67,295.75a2.91,2.91,0,0,1,.91-2.24,3.28,3.28,0,0,1,2.32-.84H724.7a3.69,3.69,0,0,1,2.28.77,3.1,3.1,0,0,1,1.16,2.32V308a3.71,3.71,0,0,1-.88,2.45,3.14,3.14,0,0,1-2.56,1.05H698v82.08a3.27,3.27,0,0,1-.88,2.24,3.07,3.07,0,0,1-2.42,1H680.93a3.34,3.34,0,0,1-2.28-.91,3,3,0,0,1-1-2.32V311.54H650.89a3.2,3.2,0,0,1-2.32-.88,3.49,3.49,0,0,1-.91-2.63Z" transform="translate(-132.86 -143.8)"/><path class="cls-1" d="M755.08,281q0-4.22,4.14-4.22H771a4.58,4.58,0,0,1,3.16,1.06,4,4,0,0,1,1.19,3.17v10.49a4.93,4.93,0,0,1-1.12,3.06,3.77,3.77,0,0,1-3.16,1.44H759.29q-4.21,0-4.21-4.51Zm0,31.06a4.53,4.53,0,0,1,1.05-3.05,3.84,3.84,0,0,1,3.09-1.23h11.65a4.31,4.31,0,0,1,1.57.32,4.38,4.38,0,0,1,1.44.91,5.42,5.42,0,0,1,1.05,1.37,3.47,3.47,0,0,1,.42,1.68v80.61q0,4.21-4.42,4.21H759.29q-4.21,0-4.21-4.21Z" transform="translate(-132.86 -143.8)"/><path class="cls-1" d="M812.15,308.63a10.06,10.06,0,0,1,4.45-.88h7.09a3.49,3.49,0,0,1,3,1.34,7.68,7.68,0,0,1,1.33,3l.77,6.76a35.75,35.75,0,0,1,3.72-4.61,22.17,22.17,0,0,1,5-3.91,27.2,27.2,0,0,1,6.8-2.71,36,36,0,0,1,9.09-1,38.58,38.58,0,0,1,8.91,1,26.67,26.67,0,0,1,7.22,2.82,26.24,26.24,0,0,1,5.82,4.58,34.7,34.7,0,0,1,4.7,6.23,22.44,22.44,0,0,1,4.56-6.05,28.35,28.35,0,0,1,6.63-4.68,35.72,35.72,0,0,1,8.25-3,40.68,40.68,0,0,1,9.33-1.06,33.25,33.25,0,0,1,14.56,3,29.7,29.7,0,0,1,10.49,8.28,36.37,36.37,0,0,1,6.35,12.28,51.15,51.15,0,0,1,2.14,15v46.8a5.47,5.47,0,0,1-1.19,3.82,4.44,4.44,0,0,1-3.44,1.3H927.1q-2.81,0-3.76-1.05a5.6,5.6,0,0,1-.94-3.71V345a24.86,24.86,0,0,0-1.06-7.22,17.72,17.72,0,0,0-3.26-6.2,16.5,16.5,0,0,0-5.54-4.34,17.77,17.77,0,0,0-8-1.65,18.48,18.48,0,0,0-7.15,1.37,16.12,16.12,0,0,0-5.69,3.93A18.64,18.64,0,0,0,888,337a22.45,22.45,0,0,0-1.37,8V391.8q0,5-4.56,5H871.33q-2.81,0-3.72-1.05a5.75,5.75,0,0,1-.91-3.71v-47a25.15,25.15,0,0,0-1-7.11,18.3,18.3,0,0,0-3.16-6.2,15.89,15.89,0,0,0-5.51-4.42,17.69,17.69,0,0,0-8-1.68,18,18,0,0,0-6.45,1.23,19,19,0,0,0-5.86,3.54,18.46,18.46,0,0,0-4.32,5.68,17.46,17.46,0,0,0-1.75,7.64v49a4,4,0,0,1-1.19,3,4.16,4.16,0,0,1-3,1.16H814.85a4.64,4.64,0,0,1-3.4-1.09,4.22,4.22,0,0,1-1.09-3.12V311.89A3.3,3.3,0,0,1,812.15,308.63Z" transform="translate(-132.86 -143.8)"/><path class="cls-1" d="M1045.6,387a50.18,50.18,0,0,1-13.51,8.28,41.91,41.91,0,0,1-16.1,3,45.75,45.75,0,0,1-18-3.58,47,47,0,0,1-25-24.45,43.71,43.71,0,0,1-3.75-18.07,47.07,47.07,0,0,1,5.93-23,45.59,45.59,0,0,1,6.91-9.33,43.78,43.78,0,0,1,20-11.93,45.54,45.54,0,0,1,12.38-1.65,43.24,43.24,0,0,1,10.52,1.3,46.28,46.28,0,0,1,9.86,3.68,46.83,46.83,0,0,1,8.73,5.79,42.16,42.16,0,0,1,7.15,7.68,41.45,41.45,0,0,1,6.17,12.7,54.34,54.34,0,0,1,2,15.08,27.83,27.83,0,0,1-.17,3.4,4.26,4.26,0,0,1-.88,2.21,4.06,4.06,0,0,1-2.11,1.23,15.54,15.54,0,0,1-3.93.39H989.54a23.76,23.76,0,0,0,3.47,8.95,26.93,26.93,0,0,0,6.07,6.6,25.62,25.62,0,0,0,7.65,4.07,26.23,26.23,0,0,0,8.28,1.37,28.63,28.63,0,0,0,6.07-.63,31.23,31.23,0,0,0,5.44-1.69,30.19,30.19,0,0,0,4.67-2.42,27.28,27.28,0,0,0,3.75-2.84.06.06,0,0,1,.07-.07,10.05,10.05,0,0,1,1.61-1.23,3.12,3.12,0,0,1,1.61-.45,3.16,3.16,0,0,1,1.44.42,5.06,5.06,0,0,1,1.58,1.4q1.9,2.32,3.23,3.86t2.17,2.6a11,11,0,0,1,1.23,1.82,3.43,3.43,0,0,1,.39,1.54Q1048.27,385.06,1045.6,387Zm-31.15-63.28a22.36,22.36,0,0,0-8.07,1.51,27.11,27.11,0,0,0-7.19,4.1,28.36,28.36,0,0,0-5.68,6.1A25,25,0,0,0,990,343h49.67a27.14,27.14,0,0,0-3.4-7.82,25.09,25.09,0,0,0-5.51-6.11,24.33,24.33,0,0,0-7.37-4A27.57,27.57,0,0,0,1014.45,323.75Z" transform="translate(-132.86 -143.8)"/><path class="cls-2" d="M1148.44,320.45a3.26,3.26,0,0,1-1.69-.45,16.22,16.22,0,0,1-1.75-1.23l-.14-.07a36.75,36.75,0,0,0-8.14-6,34.28,34.28,0,0,0-5.58-2.38,19.33,19.33,0,0,0-6.07-1,25,25,0,0,0-6.95.88,15.9,15.9,0,0,0-5.05,2.39,10.33,10.33,0,0,0-3.09,3.54,9.33,9.33,0,0,0-1.05,4.35,6.7,6.7,0,0,0,1.58,4.42,14.56,14.56,0,0,0,4.28,3.37A41.93,41.93,0,0,0,1121,331q3.51,1.23,7.37,2.42,4.42,1.33,8.77,2.88a80,80,0,0,1,8.31,3.47,58.2,58.2,0,0,1,7.4,4.28,28,28,0,0,1,5.93,5.4,24.75,24.75,0,0,1,3.93,6.81,23.49,23.49,0,0,1,1.44,8.45,30.47,30.47,0,0,1-3.09,13.82,31.56,31.56,0,0,1-8.52,10.56,39.08,39.08,0,0,1-12.77,6.73,51.26,51.26,0,0,1-15.75,2.35,46.48,46.48,0,0,1-10.73-1.26,52.23,52.23,0,0,1-10.25-3.58,54.34,54.34,0,0,1-9.29-5.58,46.33,46.33,0,0,1-7.82-7.33v.07l-.14-.28a5.11,5.11,0,0,1-1.54-3.23,2.83,2.83,0,0,1,.42-1.47,8.22,8.22,0,0,1,1.26-1.54l2.32-2.32q1.05-.91,2.24-2a30,30,0,0,1,2.39-2q1.19-.91,2.21-1.54a3.42,3.42,0,0,1,1.65-.63,3,3,0,0,1,1.82.63,12.76,12.76,0,0,1,1.4,1.19l.28.28h-.07a46.38,46.38,0,0,0,5.51,4.42,55.39,55.39,0,0,0,6.28,3.75,37.46,37.46,0,0,0,6.42,2.59,21.08,21.08,0,0,0,6,.95,25.63,25.63,0,0,0,7.22-1,18.61,18.61,0,0,0,5.82-2.77,13.31,13.31,0,0,0,3.86-4.32,11.35,11.35,0,0,0,1.41-5.61,8,8,0,0,0-1.83-5.3,16.55,16.55,0,0,0-4.77-3.86,36.7,36.7,0,0,0-6.63-2.84q-3.69-1.19-7.4-2.25a111.26,111.26,0,0,1-15-5.61,45.3,45.3,0,0,1-10.7-6.77,23.82,23.82,0,0,1-8.56-18.9,26.06,26.06,0,0,1,10.1-21.08,36,36,0,0,1,11.65-6,50.62,50.62,0,0,1,15.22-2.14,44.49,44.49,0,0,1,13,2,50.66,50.66,0,0,1,12.21,5.51q1.68,1.05,3.44,2.39t3.22,2.7a18.67,18.67,0,0,1,2.42,2.67,3.29,3.29,0,0,1,.53,3.93,6.67,6.67,0,0,1-1.05,1.58l-2.11,2.25v-.07l-2.17,2.32a27,27,0,0,1-2.25,2.14q-1.12.95-2,1.58A2.91,2.91,0,0,1,1148.44,320.45Z" transform="translate(-132.86 -143.8)"/><path class="cls-2" d="M1224.35,396.85a34.25,34.25,0,0,1-10.42-1.69,25.27,25.27,0,0,1-8.49-4.67,22,22,0,0,1-5.72-7.51,23.53,23.53,0,0,1-2.1-10.15v-47.4h-8.07a4.45,4.45,0,0,1-3.05-.91,3.85,3.85,0,0,1-1-3V311.45a3.53,3.53,0,0,1,1-2.87,4.71,4.71,0,0,1,3.05-.84h8.07q0-3.72,0-7.4t0-7.4a2.85,2.85,0,0,1,.87-2.21,7.81,7.81,0,0,1,2.7-1.44l2.88-1q1.68-.6,3.47-1.16t3.47-.95a13,13,0,0,1,2.81-.39c1.45,0,2.4.4,2.84,1.19a6.47,6.47,0,0,1,.67,3.16q0,4.42,0,8.8t0,8.8h10.1a3.88,3.88,0,0,1,2.8.94,4,4,0,0,1,1,3v9.57a4.41,4.41,0,0,1-1,3.22,3.8,3.8,0,0,1-2.8,1h-10.1v13.31c0,1.62,0,3.13,0,4.53s0,2.93,0,4.57v13.35a1.21,1.21,0,0,1,0,.28,1,1,0,0,0,0,.28V371q0,4.64,1.82,6.67t5.89,2a2.8,2.8,0,0,1,2.32,1.05,3.93,3.93,0,0,1,.84,2.53V393a3.53,3.53,0,0,1-3.86,3.86Z" transform="translate(-132.86 -143.8)"/><path class="cls-2" d="M1334.78,394.11a1.44,1.44,0,0,1-.53,1.19,3.14,3.14,0,0,1-1.3.6,9.21,9.21,0,0,1-1.68.21c-.61,0-1.15,0-1.61,0h-7.09a3.54,3.54,0,0,1-3-1.3,7.28,7.28,0,0,1-1.33-3l-.77-6.38a24.92,24.92,0,0,1-3.86,4.46,25.2,25.2,0,0,1-5.47,3.79,31.54,31.54,0,0,1-7.26,2.63,40.13,40.13,0,0,1-9.3,1,34.43,34.43,0,0,1-14.73-3,30.6,30.6,0,0,1-10.7-8.14,35.58,35.58,0,0,1-6.56-12.17,49.13,49.13,0,0,1-2.24-15.08v-46.8a5.48,5.48,0,0,1,1.19-3.82,4.45,4.45,0,0,1,3.44-1.3h10.66q2.81,0,3.75,1.05a5.61,5.61,0,0,1,.95,3.72v46.79a23.24,23.24,0,0,0,1.16,7.26,19.31,19.31,0,0,0,3.47,6.35,17,17,0,0,0,5.79,4.49,18.35,18.35,0,0,0,8.1,1.69,22.09,22.09,0,0,0,6.73-1.12,19.73,19.73,0,0,0,6.39-3.44,19,19,0,0,0,4.77-5.79,16.65,16.65,0,0,0,1.89-8.1V314.42a23.92,23.92,0,0,1,.14-2.56,8.6,8.6,0,0,1,.59-2.39,4.52,4.52,0,0,1,1.26-1.75,3.37,3.37,0,0,1,2.21-.67h11.58a4.57,4.57,0,0,1,3.41,1.12,4.36,4.36,0,0,1,1.09,3.16V392A2.32,2.32,0,0,1,1334.78,394.11Z" transform="translate(-132.86 -143.8)"/><path class="cls-2" d="M1436.5,386.68a46.14,46.14,0,0,1-5.44,4.63,37.71,37.71,0,0,1-6.38,3.75,38.12,38.12,0,0,1-7.23,2.49,34.2,34.2,0,0,1-8,.91,43.14,43.14,0,0,1-17.64-3.61A45,45,0,0,1,1377.6,385a45.58,45.58,0,0,1-9.51-14.63,48.64,48.64,0,0,1,0-35.92,45.59,45.59,0,0,1,9.51-14.63,45,45,0,0,1,14.24-9.86,43.14,43.14,0,0,1,17.64-3.61,35.22,35.22,0,0,1,15.08,3.05,38.54,38.54,0,0,1,11.58,8.31v-32.2a4,4,0,0,1,4.35-4.21H1452a4.66,4.66,0,0,1,3,1.16,3.76,3.76,0,0,1,1.4,3.05V392.64q0,4.21-4.49,4.21h-10.52a3.36,3.36,0,0,1-2.87-1.05,10.61,10.61,0,0,1-1.41-3.16Zm-52.13-34.24a28.9,28.9,0,0,0,2,10.63,26.78,26.78,0,0,0,5.47,8.74,26.26,26.26,0,0,0,8.25,5.89,24.47,24.47,0,0,0,10.35,2.18,25.87,25.87,0,0,0,10.45-2.14,27.16,27.16,0,0,0,8.56-5.82,28,28,0,0,0,5.79-8.56,27.36,27.36,0,0,0,2.28-10.42v-.49a27.31,27.31,0,0,0-2.1-10.59,28.76,28.76,0,0,0-5.75-8.87,27.94,27.94,0,0,0-8.6-6.1,25.08,25.08,0,0,0-10.63-2.28,23.53,23.53,0,0,0-10.35,2.28,27,27,0,0,0-8.25,6.1,28,28,0,0,0-5.47,8.87A29,29,0,0,0,1384.37,352.44Z" transform="translate(-132.86 -143.8)"/><path class="cls-2" d="M1519.21,422.6a5.25,5.25,0,0,1-1.61,2.28,4.23,4.23,0,0,1-2.59.74h-13.19a4.1,4.1,0,0,1-2.7-.67,2.14,2.14,0,0,1-.74-1.65,7.79,7.79,0,0,1,.18-1.4,2.84,2.84,0,0,1,.31-1.05l12.35-31.5-31.29-76.26a.28.28,0,0,0-.07-.21v-.63a4.17,4.17,0,0,1-.35-1.75,2.33,2.33,0,0,1,.84-1.89,4,4,0,0,1,2.59-.7h12.7a4.12,4.12,0,0,1,4.14,2.95l1.26,3.3q1.4,3.93,3.16,8.8t3.65,10.07q1.89,5.19,3.82,10.42t3.65,9.82q1.72,4.6,3.12,8.28t2.24,5.79l20.77-56.48a5.24,5.24,0,0,1,1.61-2.28,4.23,4.23,0,0,1,2.59-.74h13.19a4.1,4.1,0,0,1,2.7.67,2.14,2.14,0,0,1,.74,1.65,8.12,8.12,0,0,1-.17,1.4,2.93,2.93,0,0,1-.31,1.05Z" transform="translate(-132.86 -143.8)"/><path class="cls-1" d="M475.18,448.78c-74.28,99-227.69,92.8-291.36-14.11-58.26-97.84-4.59-227.95,105-257.61,69.65-18.85,143.35,8.66,186.31,65.92,10.4,13.86,34.07.29,23.53-13.75-43-57.33-110.91-91.64-183.34-84.5-63,6.21-120.3,42.19-153.54,96.07C90.4,356.56,157.82,514,290.49,543.15c80.16,17.61,159.66-15.86,208.22-80.62,10.53-14-13.12-27.63-23.53-13.75Z" transform="translate(-132.86 -143.8)"/><rect class="cls-1" x="188.4" y="77.95" width="25.74" height="137.02" rx="2.83" ry="2.83"/><rect class="cls-1" x="282.08" y="293.85" width="25.74" height="104.08" rx="2.83" ry="2.83" transform="translate(-183.8 497.05) rotate(-90)"/><rect class="cls-1" x="330.62" y="182.44" width="7" height="17.5" transform="translate(535.39 238.59) rotate(-180)"/><rect class="cls-1" x="330.62" y="490.9" width="7" height="17.5" transform="translate(535.39 855.5) rotate(-180)"/><rect class="cls-1" x="176.03" y="337.14" width="7" height="17.5" transform="translate(-299.22 381.63) rotate(-90)"/></svg>